<svg width="38" height="31" viewBox="0 0 38 31" fill="none" xmlns="http://www.w3.org/2000/svg">
<path d="M25.9507 4H20.9175C20.4487 4 19.9976 4.17578 19.6519 4.49219L13.8921 9.76562C13.8862 9.77148 13.8804 9.7832 13.8745 9.78906C12.9019 10.7031 12.9194 12.1621 13.7515 13.0703C14.4956 13.8848 16.0601 14.1016 17.0386 13.2285C17.0444 13.2227 17.0562 13.2227 17.062 13.2168L21.7437 8.92773C22.1245 8.58203 22.7222 8.60547 23.0679 8.98633C23.4194 9.36719 23.3901 9.95898 23.0093 10.3105L21.48 11.7109L30.0112 18.6367C30.1812 18.7773 30.3335 18.9297 30.4741 19.0879V7.75L27.2749 4.55078C26.9292 4.19922 26.4487 4 25.9507 4ZM32.355 7.76172V20.8809C32.355 21.918 33.1929 22.7559 34.23 22.7559H37.98V7.76172H32.355ZM35.1675 20.8809C34.6519 20.8809 34.23 20.459 34.23 19.9434C34.23 19.4277 34.6519 19.0059 35.1675 19.0059C35.6831 19.0059 36.105 19.4277 36.105 19.9434C36.105 20.459 35.6831 20.8809 35.1675 20.8809ZM0.47998 22.75H4.22998C5.26709 22.75 6.10498 21.9121 6.10498 20.875V7.76172H0.47998V22.75ZM3.29248 19.0059C3.80811 19.0059 4.22998 19.4277 4.22998 19.9434C4.22998 20.459 3.80811 20.8809 3.29248 20.8809C2.77686 20.8809 2.35498 20.459 2.35498 19.9434C2.35498 19.4219 2.77686 19.0059 3.29248 19.0059ZM28.8335 20.0957L20.0854 12.9941L18.3276 14.6055C16.5874 16.1934 13.9214 16.041 12.3687 14.3477C10.7925 12.625 10.9155 9.95898 12.6265 8.38867L17.4194 4H12.5093C12.0112 4 11.5366 4.19922 11.1851 4.55078L7.97998 7.75V20.8691H9.05225L14.355 25.668C15.9604 26.9746 18.3218 26.7285 19.6284 25.123L19.6401 25.1113L20.689 26.0195C21.6206 26.7812 22.9976 26.6348 23.7534 25.7031L25.5933 23.4414L25.9097 23.6992C26.7124 24.3496 27.896 24.2324 28.5464 23.4238L29.103 22.7383C29.7593 21.9297 29.6362 20.752 28.8335 20.0957Z" fill="white"/>
</svg>
