<svg width="40" height="46" viewBox="0 0 40 46" fill="none" xmlns="http://www.w3.org/2000/svg">
<path d="M35.7018 42.3121H4.7682C2.4394 42.3121 0.549988 40.4227 0.549988 38.0939V7.16035C0.549988 4.83155 2.4394 2.94214 4.7682 2.94214H35.7018C38.0306 2.94214 39.92 4.83155 39.92 7.16035V38.0939C39.92 40.4227 38.0306 42.3121 35.7018 42.3121ZM21.4741 15.7638L9.54885 27.689L8.9952 32.7069C8.9249 33.3748 9.48733 33.946 10.164 33.8757L15.1819 33.3221L27.1072 21.3968C27.3093 21.1947 27.3093 20.8608 27.1072 20.6499L22.2299 15.7725C22.0102 15.5616 21.6762 15.5616 21.4741 15.7638ZM30.8684 14.6389L28.2232 11.9937C27.3972 11.1677 26.0614 11.1677 25.2441 11.9937L23.2141 14.0237C23.012 14.2259 23.012 14.5598 23.2141 14.7707L28.0914 19.648C28.2935 19.8501 28.6275 19.8501 28.8384 19.648L30.8684 17.618C31.6857 16.8007 31.6857 15.465 30.8684 14.6389Z" fill="white"/>
</svg>
