<svg width="46" height="45" viewBox="0 0 46 45" fill="none" xmlns="http://www.w3.org/2000/svg">
<path d="M18.189 22.261H20.4053L19.3188 19.8708L18.189 22.261ZM23.23 6.39917C20.7964 6.39917 18.5076 6.76855 16.3638 7.50732C14.2199 8.24609 12.3512 9.25285 10.7578 10.5276C9.16439 11.8023 7.91138 13.2871 6.99878 14.9819C6.08618 16.6768 5.62988 18.4947 5.62988 20.4358C5.62988 21.6816 5.8182 22.8766 6.19482 24.021C6.57145 25.1654 7.10742 26.2373 7.80273 27.2368C8.49805 28.2363 9.33822 29.1562 10.3232 29.9963C11.3083 30.8365 12.4092 31.5753 13.626 32.2126L12.2788 39.0789L19.9272 34.2117C20.4487 34.2986 20.9847 34.3638 21.5352 34.4072C22.0856 34.4507 22.6506 34.4724 23.23 34.4724C25.6636 34.4724 27.9523 34.103 30.0962 33.3643C32.2401 32.6255 34.1087 31.626 35.7021 30.3657C37.2956 29.1055 38.5486 27.6207 39.4612 25.9114C40.3738 24.2021 40.8301 22.3769 40.8301 20.4358C40.8301 18.4947 40.3738 16.6768 39.4612 14.9819C38.5486 13.2871 37.2956 11.8023 35.7021 10.5276C34.1087 9.25285 32.2401 8.24609 30.0962 7.50732C27.9523 6.76855 25.6636 6.39917 23.23 6.39917ZM14.3213 24.6077C14.3213 24.6946 14.2996 24.7815 14.2561 24.8684C14.2126 24.9553 14.1619 25.0422 14.104 25.1292C14.0171 25.1871 13.9302 25.2378 13.8433 25.2812C13.7563 25.3247 13.6549 25.3464 13.5391 25.3464H13.4087C13.2928 25.3464 13.1914 25.3247 13.1045 25.2812C13.0176 25.2378 12.9307 25.1871 12.8438 25.1292C12.7858 25.0422 12.7424 24.9553 12.7134 24.8684C12.6844 24.7815 12.6699 24.6946 12.6699 24.6077V18.4802H10.8447C10.7578 18.4802 10.6854 18.4657 10.6274 18.4368C10.5695 18.4078 10.4971 18.3788 10.4102 18.3499C10.3522 18.3209 10.3015 18.2774 10.2581 18.2195C10.2146 18.1615 10.1784 18.1036 10.1494 18.0457C10.1494 18.0167 10.1422 17.9732 10.1277 17.9153C10.1132 17.8573 10.106 17.8139 10.106 17.7849C10.106 17.727 10.1132 17.6763 10.1277 17.6328C10.1422 17.5894 10.1494 17.5531 10.1494 17.5242C10.1784 17.4662 10.2074 17.4228 10.2363 17.3938C10.2653 17.3648 10.2943 17.3359 10.3232 17.3069C10.3812 17.2489 10.4609 17.1982 10.5623 17.1548C10.6637 17.1113 10.7578 17.0896 10.8447 17.0896H16.103C16.161 17.0896 16.2262 17.1041 16.2986 17.1331C16.371 17.162 16.4362 17.191 16.4941 17.22C16.5521 17.2489 16.6028 17.2924 16.6462 17.3503C16.6897 17.4083 16.7259 17.4662 16.7549 17.5242C16.7839 17.5531 16.8056 17.5894 16.8201 17.6328C16.8346 17.6763 16.8418 17.727 16.8418 17.7849C16.8418 17.8139 16.8346 17.8573 16.8201 17.9153C16.8056 17.9732 16.7839 18.0167 16.7549 18.0457C16.7549 18.0746 16.7404 18.1108 16.7114 18.1543C16.6825 18.1978 16.6535 18.234 16.6245 18.2629C16.5376 18.3209 16.4507 18.3716 16.3638 18.415C16.2769 18.4585 16.1899 18.4802 16.103 18.4802H14.3213V24.6077ZM23.0996 24.9553C23.0417 25.0422 22.9837 25.1074 22.9258 25.1509C22.8678 25.1943 22.8099 25.2306 22.752 25.2595L22.6216 25.303C22.5057 25.3609 22.3826 25.3899 22.2522 25.3899C22.1218 25.3899 21.9987 25.3464 21.8828 25.2595C21.8249 25.2306 21.7742 25.1871 21.7307 25.1292C21.6873 25.0712 21.651 25.0133 21.6221 24.9553L21.0137 23.6082H17.5806L16.9722 24.9553C16.9432 25.0133 16.907 25.0712 16.8635 25.1292C16.8201 25.1871 16.7694 25.2306 16.7114 25.2595C16.5955 25.3175 16.4797 25.3537 16.3638 25.3682C16.2479 25.3826 16.132 25.3609 16.0161 25.303L15.8423 25.2595C15.7843 25.2306 15.7264 25.1871 15.6685 25.1292C15.6105 25.0712 15.5671 25.0133 15.5381 24.9553C15.5091 24.8974 15.4801 24.8394 15.4512 24.7815C15.4222 24.7236 15.4077 24.6511 15.4077 24.5642C15.4077 24.5063 15.415 24.4556 15.4294 24.4121C15.4439 24.3687 15.4657 24.318 15.4946 24.26L18.4497 17.7415L18.4932 17.6545C18.4932 17.6256 18.5004 17.5966 18.5149 17.5676C18.5294 17.5387 18.5511 17.5097 18.5801 17.4807C18.5801 17.4517 18.5873 17.43 18.6018 17.4155C18.6163 17.401 18.6235 17.3938 18.6235 17.3938C18.6525 17.3359 18.6887 17.2852 18.7322 17.2417C18.7756 17.1982 18.8263 17.162 18.8843 17.1331C18.9422 17.1041 19.0002 17.0824 19.0581 17.0679C19.116 17.0534 19.1885 17.0461 19.2754 17.0461C19.2754 17.0461 19.2826 17.0461 19.2971 17.0461C19.3116 17.0461 19.3333 17.0461 19.3623 17.0461C19.4492 17.0461 19.5216 17.0534 19.5796 17.0679C19.6375 17.0824 19.6955 17.1186 19.7534 17.1765C19.7824 17.1765 19.8114 17.191 19.8403 17.22C19.8693 17.2489 19.8983 17.2779 19.9272 17.3069C19.9562 17.3359 19.9779 17.3648 19.9924 17.3938C20.0069 17.4228 20.0286 17.4373 20.0576 17.4373C20.0576 17.4952 20.0649 17.5387 20.0793 17.5676C20.0938 17.5966 20.1156 17.6401 20.1445 17.698L23.2734 24.6511L23.0996 24.9553ZM29.4009 24.9553C29.3719 24.9843 29.3502 25.0133 29.3357 25.0422C29.3212 25.0712 29.2995 25.1002 29.2705 25.1292C29.1836 25.1871 29.0967 25.2378 29.0098 25.2812C28.9229 25.3247 28.8359 25.3464 28.749 25.3464H24.4033C24.4033 25.3464 24.3961 25.3464 24.3816 25.3464C24.3671 25.3464 24.3454 25.3464 24.3164 25.3464C24.2585 25.3175 24.2005 25.2957 24.1426 25.2812C24.0846 25.2668 24.0412 25.245 24.0122 25.2161C23.9543 25.1871 23.9036 25.1509 23.8601 25.1074C23.8167 25.064 23.7804 25.0133 23.7515 24.9553L23.6646 24.825V17.8284C23.6646 17.7415 23.6863 17.6545 23.7297 17.5676C23.7732 17.4807 23.8239 17.3938 23.8818 17.3069C23.9398 17.2489 24.0194 17.1982 24.1208 17.1548C24.2222 17.1113 24.3164 17.0896 24.4033 17.0896H24.5771C24.6641 17.0896 24.7582 17.1113 24.8596 17.1548C24.961 17.1982 25.0407 17.2489 25.0986 17.3069C25.1566 17.3938 25.2073 17.4807 25.2507 17.5676C25.2942 17.6545 25.3159 17.7415 25.3159 17.8284V23.9993H28.749C28.807 23.9993 28.8722 24.0065 28.9446 24.021C29.017 24.0355 29.0822 24.0717 29.1401 24.1296C29.1691 24.1296 29.1981 24.1441 29.2271 24.1731C29.256 24.2021 29.285 24.231 29.314 24.26L29.6182 24.5642L29.4009 24.9553ZM36.3105 24.825C36.2816 24.8829 36.2526 24.9336 36.2236 24.9771C36.1947 25.0205 36.1512 25.0567 36.0933 25.0857L35.9629 25.2161C35.847 25.274 35.7166 25.3102 35.5718 25.3247C35.4269 25.3392 35.2965 25.3175 35.1807 25.2595C35.1227 25.2306 35.072 25.2016 35.0286 25.1726C34.9851 25.1436 34.9489 25.1002 34.9199 25.0422L32.5732 21.8699L31.6172 22.8694V24.6077C31.6172 24.6946 31.5955 24.7815 31.552 24.8684C31.5085 24.9553 31.4578 25.0422 31.3999 25.1292C31.313 25.1871 31.2261 25.2378 31.1392 25.2812C31.0522 25.3247 30.9653 25.3464 30.8784 25.3464H30.7046C30.6177 25.3464 30.5235 25.3247 30.4221 25.2812C30.3207 25.2378 30.241 25.1871 30.1831 25.1292C30.1541 25.1002 30.1324 25.0712 30.1179 25.0422C30.1034 25.0133 30.0817 24.9843 30.0527 24.9553L29.9658 24.7815V17.8284C29.9658 17.7415 29.9875 17.6545 30.031 17.5676C30.0745 17.4807 30.1252 17.3938 30.1831 17.3069C30.241 17.2489 30.3207 17.1982 30.4221 17.1548C30.5235 17.1113 30.6177 17.0896 30.7046 17.0896H30.8784C30.9653 17.0896 31.0595 17.1113 31.1609 17.1548C31.2623 17.1982 31.342 17.2489 31.3999 17.3069C31.4578 17.3938 31.5085 17.4807 31.552 17.5676C31.5955 17.6545 31.6172 17.7415 31.6172 17.8284V20.4792L34.6592 17.3069C34.6882 17.2779 34.7244 17.2489 34.7678 17.22C34.8113 17.191 34.8475 17.1765 34.8765 17.1765C35.0213 17.1186 35.1662 17.0968 35.311 17.1113C35.4559 17.1258 35.5863 17.191 35.7021 17.3069L35.8325 17.4373C35.8615 17.4662 35.8905 17.5024 35.9194 17.5459C35.9484 17.5894 35.9774 17.6256 36.0063 17.6545C36.0063 17.7125 36.0136 17.7632 36.0281 17.8066C36.0426 17.8501 36.0498 17.9008 36.0498 17.9587C36.0498 18.0457 36.0281 18.1326 35.9846 18.2195C35.9412 18.3064 35.8905 18.3933 35.8325 18.4802L33.7466 20.6531L36.2671 24.0427C36.2961 24.1296 36.325 24.2093 36.354 24.2817C36.383 24.3542 36.3975 24.4194 36.3975 24.4773C36.3975 24.5352 36.3902 24.5932 36.3757 24.6511C36.3612 24.7091 36.3395 24.767 36.3105 24.825Z" fill="white"/>
</svg>
